solid room
   facet normal 1.0 0.0 0.0
     outer loop
       vertex 9.0 2.0525 3.1183
       vertex 9.0 1.0 6.0
       vertex 9.0 1.0 0.0
     endloop
   endfacet
   facet normal 1.0 0.0 0.0
     outer loop
       vertex 9.0 2.0525 1.1183
       vertex 9.0 2.0525 3.1183
       vertex 9.0 1.0 0.0
     endloop
   endfacet
   facet normal 1.0 0.0 0.0
     outer loop
       vertex 9.0 2.0525 3.1183
       vertex 9.0 4.169 3.1183
       vertex 9.0 4.169 4.6122
     endloop
   endfacet
   facet normal 1.0 0.0 -0.0
     outer loop
       vertex 9.0 2.0525 3.1183
       vertex 9.0 4.169 4.6122
       vertex 9.0 2.0525 4.6122
     endloop
   endfacet
   facet normal 1.0 0.0 0.0
     outer loop
       vertex 9.0 2.0525 1.1183
       vertex 9.0 1.0 0.0
       vertex 9.0 4.169 1.1183
     endloop
   endfacet
   facet normal 1.0 0.0 0.0
     outer loop
       vertex 9.0 2.0525 4.6122
       vertex 9.0 1.0 6.0
       vertex 9.0 2.0525 3.1183
     endloop
   endfacet
   facet normal 1.0 0.0 0.0
     outer loop
       vertex 9.0 4.169 5.6122
       vertex 9.0 1.0 6.0
       vertex 9.0 2.0525 5.6122
     endloop
   endfacet
   facet normal 1.0 0.0 0.0
     outer loop
       vertex 9.0 2.0525 5.6122
       vertex 9.0 1.0 6.0
       vertex 9.0 2.0525 4.6122
     endloop
   endfacet
   facet normal 1.0 0.0 0.0
     outer loop
       vertex 9.0 5.8835 5.0
       vertex 9.0 4.169 5.6122
       vertex 9.0 4.169 4.6122
     endloop
   endfacet
   facet normal 1.0 0.0 0.0
     outer loop
       vertex 9.0 9.0 6.0
       vertex 9.0 1.0 6.0
       vertex 9.0 4.169 5.6122
     endloop
   endfacet
   facet normal 1.0 -0.0 0.0
     outer loop
       vertex 9.0 4.169 3.1183
       vertex 9.0 4.169 1.1183
       vertex 9.0 5.8835 3.0
     endloop
   endfacet
   facet normal 1.0 0.0 0.0
     outer loop
       vertex 9.0 9.0 0.0
       vertex 9.0 5.8835 3.0
       vertex 9.0 4.169 1.1183
     endloop
   endfacet
   facet normal 1.0 0.0 0.0
     outer loop
       vertex 9.0 9.0 6.0
       vertex 9.0 8.0 3.0
       vertex 9.0 9.0 0.0
     endloop
   endfacet
   facet normal 1.0 0.0 -0.0
     outer loop
       vertex 9.0 5.8835 3.0
       vertex 9.0 9.0 0.0
       vertex 9.0 8.0 3.0
     endloop
   endfacet
   facet normal 1.0 0.0 0.0
     outer loop
       vertex 9.0 9.0 0.0
       vertex 9.0 4.169 1.1183
       vertex 9.0 1.0 0.0
     endloop
   endfacet
   facet normal 1.0 0.0 -0.0
     outer loop
       vertex 9.0 4.169 3.1183
       vertex 9.0 5.8835 3.0
       vertex 9.0 4.169 4.6122
     endloop
   endfacet
   facet normal 1.0 0.0 0.0
     outer loop
       vertex 9.0 4.169 4.6122
       vertex 9.0 5.8835 3.0
       vertex 9.0 5.8835 5.0
     endloop
   endfacet
   facet normal 1.0 0.0 0.0
     outer loop
       vertex 9.0 5.8835 5.0
       vertex 9.0 8.0 5.0
       vertex 9.0 9.0 6.0
     endloop
   endfacet
   facet normal 1.0 0.0 -0.0
     outer loop
       vertex 9.0 8.0 3.0
       vertex 9.0 9.0 6.0
       vertex 9.0 8.0 5.0
     endloop
   endfacet
   facet normal 1.0 0.0 0.0
     outer loop
       vertex 9.0 4.169 5.6122
       vertex 9.0 5.8835 5.0
       vertex 9.0 9.0 6.0
     endloop
   endfacet
   facet normal -0.0 0.0 1.0
     outer loop
       vertex 1.0 9.0 6.0
       vertex 1.0 1.0 6.0
       vertex 9.0 1.0 6.0
     endloop
   endfacet
   facet normal 0.0 0.0 1.0
     outer loop
       vertex 1.0 9.0 6.0
       vertex 9.0 1.0 6.0
       vertex 9.0 9.0 6.0
     endloop
   endfacet
   facet normal 0.0 0.0 -1.0
     outer loop
       vertex 1.0 9.0 0.0
       vertex 9.0 9.0 0.0
       vertex 9.0 1.0 0.0
     endloop
   endfacet
   facet normal -0.0 -0.0 -1.0
     outer loop
       vertex 1.0 9.0 0.0
       vertex 9.0 1.0 0.0
       vertex 1.0 1.0 0.0
     endloop
   endfacet
   facet normal -1.0 -0.0 0.0
     outer loop
       vertex 1.0 9.0 6.0
       vertex 1.0 9.0 0.0
       vertex 1.0 8.0 3.1123
     endloop
   endfacet
   facet normal -1.0 0.0 0.0
     outer loop
       vertex 1.0 9.0 0.0
       vertex 1.0 1.0 0.0
       vertex 1.0 2.0 3.1123
     endloop
   endfacet
   facet normal -1.0 0.0 0.0
     outer loop
       vertex 1.0 9.0 0.0
       vertex 1.0 2.0 3.1123
       vertex 1.0 8.0 3.1123
     endloop
   endfacet
   facet normal -1.0 0.0 0.0
     outer loop
       vertex 1.0 8.0 4.1123
       vertex 1.0 2.0 4.1123
       vertex 1.0 1.0 6.0
     endloop
   endfacet
   facet normal -1.0 0.0 0.0
     outer loop
       vertex 1.0 8.0 4.1123
       vertex 1.0 1.0 6.0
       vertex 1.0 9.0 6.0
     endloop
   endfacet
   facet normal -1.0 0.0 0.0
     outer loop
       vertex 1.0 8.0 3.1123
       vertex 1.0 8.0 4.1123
       vertex 1.0 9.0 6.0
     endloop
   endfacet
   facet normal -1.0 0.0 -0.0
     outer loop
       vertex 1.0 1.0 6.0
       vertex 1.0 2.0 3.1123
       vertex 1.0 1.0 0.0
     endloop
   endfacet
   facet normal -1.0 0.0 0.0
     outer loop
       vertex 1.0 2.0 3.1123
       vertex 1.0 1.0 6.0
       vertex 1.0 2.0 4.1123
     endloop
   endfacet
   facet normal 0.0 1.0 0.0
     outer loop
       vertex 9.0 9.0 6.0
       vertex 9.0 9.0 0.0
       vertex 1.0 9.0 0.0
     endloop
   endfacet
   facet normal 0.0 1.0 -0.0
     outer loop
       vertex 9.0 9.0 6.0
       vertex 1.0 9.0 0.0
       vertex 1.0 9.0 6.0
     endloop
   endfacet
   facet normal 0.0 -1.0 0.0
     outer loop
       vertex 1.0 1.0 6.0
       vertex 1.0 1.0 0.0
       vertex 9.0 1.0 0.0
     endloop
   endfacet
   facet normal 0.0 -1.0 0.0
     outer loop
       vertex 1.0 1.0 6.0
       vertex 9.0 1.0 0.0
       vertex 9.0 1.0 6.0
     endloop
   endfacet
endsolid room
solid east_window
   facet normal 1.0 0.0 0.0
     outer loop
       vertex 9.0 4.169 5.6122
       vertex 9.0 2.0525 5.6122
       vertex 9.0 2.0525 4.6122
     endloop
   endfacet
   facet normal 1.0 -0.0 0.0
     outer loop
       vertex 9.0 4.169 5.6122
       vertex 9.0 2.0525 4.6122
       vertex 9.0 4.169 4.6122
     endloop
   endfacet
   facet normal 1.0 0.0 0.0
     outer loop
       vertex 9.0 8.0 5.0
       vertex 9.0 5.8835 5.0
       vertex 9.0 5.8835 3.0
     endloop
   endfacet
   facet normal 1.0 -0.0 0.0
     outer loop
       vertex 9.0 8.0 5.0
       vertex 9.0 5.8835 3.0
       vertex 9.0 8.0 3.0
     endloop
   endfacet
   facet normal 1.0 0.0 0.0
     outer loop
       vertex 9.0 4.169 3.1183
       vertex 9.0 2.0525 3.1183
       vertex 9.0 2.0525 1.1183
     endloop
   endfacet
   facet normal 1.0 -0.0 0.0
     outer loop
       vertex 9.0 4.169 3.1183
       vertex 9.0 2.0525 1.1183
       vertex 9.0 4.169 1.1183
     endloop
   endfacet
endsolid east_window
solid west_window
   facet normal -1.0 -0.0 0.0
     outer loop
       vertex 1.0 8.0 4.1123
       vertex 1.0 8.0 3.1123
       vertex 1.0 2.0 3.1123
     endloop
   endfacet
   facet normal -1.0 0.0 0.0
     outer loop
       vertex 1.0 8.0 4.1123
       vertex 1.0 2.0 3.1123
       vertex 1.0 2.0 4.1123
     endloop
   endfacet
endsolid west_window
