solid buildings
   facet normal 0.0 -1.0 0.0
     outer loop
       vertex 15.3569 20.3946 6.4571
       vertex 15.3569 20.3946 0.0
       vertex 25.2323 20.3946 0.0
     endloop
   endfacet
   facet normal 0.0 -1.0 0.0
     outer loop
       vertex 15.3569 20.3946 6.4571
       vertex 25.2323 20.3946 0.0
       vertex 25.2323 20.3946 6.4571
     endloop
   endfacet
   facet normal 1.0 -0.0 0.0
     outer loop
       vertex 25.2323 20.3946 6.4571
       vertex 25.2323 20.3946 0.0
       vertex 25.2323 33.5487 0.0
     endloop
   endfacet
   facet normal 1.0 0.0 0.0
     outer loop
       vertex 25.2323 20.3946 6.4571
       vertex 25.2323 33.5487 0.0
       vertex 25.2323 33.5487 6.4571
     endloop
   endfacet
   facet normal 0.0 1.0 0.0
     outer loop
       vertex 25.2323 33.5487 6.4571
       vertex 25.2323 33.5487 0.0
       vertex 15.3569 33.5487 0.0
     endloop
   endfacet
   facet normal 0.0 1.0 -0.0
     outer loop
       vertex 25.2323 33.5487 6.4571
       vertex 15.3569 33.5487 0.0
       vertex 15.3569 33.5487 6.4571
     endloop
   endfacet
   facet normal -1.0 -0.0 0.0
     outer loop
       vertex 15.3569 33.5487 6.4571
       vertex 15.3569 33.5487 0.0
       vertex 15.3569 20.3946 0.0
     endloop
   endfacet
   facet normal -1.0 0.0 0.0
     outer loop
       vertex 15.3569 33.5487 6.4571
       vertex 15.3569 20.3946 0.0
       vertex 15.3569 20.3946 6.4571
     endloop
   endfacet
   facet normal 0.0 0.0 -1.0
     outer loop
       vertex 15.3569 33.5487 0.0
       vertex 25.2323 33.5487 0.0
       vertex 25.2323 20.3946 0.0
     endloop
   endfacet
   facet normal -0.0 -0.0 -1.0
     outer loop
       vertex 15.3569 33.5487 0.0
       vertex 25.2323 20.3946 0.0
       vertex 15.3569 20.3946 0.0
     endloop
   endfacet
   facet normal -0.0 0.0 1.0
     outer loop
       vertex 15.3569 33.5487 6.4571
       vertex 15.3569 20.3946 6.4571
       vertex 25.2323 20.3946 6.4571
     endloop
   endfacet
   facet normal 0.0 0.0 1.0
     outer loop
       vertex 15.3569 33.5487 6.4571
       vertex 25.2323 20.3946 6.4571
       vertex 25.2323 33.5487 6.4571
     endloop
   endfacet
   facet normal 0.0 -1.0 0.0
     outer loop
       vertex 6.2141 9.0591 7.0631
       vertex 6.2141 9.0591 0.0
       vertex 10.0764 9.0591 0.0
     endloop
   endfacet
   facet normal 0.0 -1.0 0.0
     outer loop
       vertex 6.2141 9.0591 7.0631
       vertex 10.0764 9.0591 0.0
       vertex 10.0764 9.0591 7.0631
     endloop
   endfacet
   facet normal 1.0 -0.0 0.0
     outer loop
       vertex 10.0764 9.0591 7.0631
       vertex 10.0764 9.0591 0.0
       vertex 10.0764 14.846 0.0
     endloop
   endfacet
   facet normal 1.0 0.0 0.0
     outer loop
       vertex 10.0764 9.0591 7.0631
       vertex 10.0764 14.846 0.0
       vertex 10.0764 14.846 7.0631
     endloop
   endfacet
   facet normal 0.0 1.0 0.0
     outer loop
       vertex 10.0764 14.846 7.0631
       vertex 10.0764 14.846 0.0
       vertex 6.2141 14.846 0.0
     endloop
   endfacet
   facet normal 0.0 1.0 -0.0
     outer loop
       vertex 10.0764 14.846 7.0631
       vertex 6.2141 14.846 0.0
       vertex 6.2141 14.846 7.0631
     endloop
   endfacet
   facet normal -1.0 -0.0 0.0
     outer loop
       vertex 6.2141 14.846 7.0631
       vertex 6.2141 14.846 0.0
       vertex 6.2141 9.0591 0.0
     endloop
   endfacet
   facet normal -1.0 0.0 0.0
     outer loop
       vertex 6.2141 14.846 7.0631
       vertex 6.2141 9.0591 0.0
       vertex 6.2141 9.0591 7.0631
     endloop
   endfacet
   facet normal 0.0 0.0 -1.0
     outer loop
       vertex 6.2141 14.846 0.0
       vertex 10.0764 14.846 0.0
       vertex 10.0764 9.0591 0.0
     endloop
   endfacet
   facet normal -0.0 -0.0 -1.0
     outer loop
       vertex 6.2141 14.846 0.0
       vertex 10.0764 9.0591 0.0
       vertex 6.2141 9.0591 0.0
     endloop
   endfacet
   facet normal -0.0 0.0 1.0
     outer loop
       vertex 6.2141 14.846 7.0631
       vertex 6.2141 9.0591 7.0631
       vertex 10.0764 9.0591 7.0631
     endloop
   endfacet
   facet normal 0.0 0.0 1.0
     outer loop
       vertex 6.2141 14.846 7.0631
       vertex 10.0764 9.0591 7.0631
       vertex 10.0764 14.846 7.0631
     endloop
   endfacet
endsolid buildings
