solid west_window
   facet normal -1.0 -0.0 0.0
     outer loop
       vertex 1.0 8.0 3.0
       vertex 1.0 8.0 1.0
       vertex 1.0 3.0 1.0
     endloop
   endfacet
   facet normal -1.0 0.0 0.0
     outer loop
       vertex 1.0 8.0 3.0
       vertex 1.0 3.0 1.0
       vertex 1.0 3.0 3.0
     endloop
   endfacet
endsolid west_window

solid east_window
   facet normal 1.0 -0.0 0.0
     outer loop
       vertex 9.0 3.0 3.0
       vertex 9.0 3.0 1.0
       vertex 9.0 8.0 1.0
     endloop
   endfacet
   facet normal 1.0 0.0 0.0
     outer loop
       vertex 9.0 3.0 3.0
       vertex 9.0 8.0 1.0
       vertex 9.0 8.0 3.0
     endloop
   endfacet
endsolid east_window

solid room
   facet normal 0.0 -1.0 0.0
     outer loop
       vertex 1.0 1.0 4.0
       vertex 1.0 1.0 0.0
       vertex 9.0 1.0 0.0
     endloop
   endfacet
   facet normal 0.0 -1.0 0.0
     outer loop
       vertex 1.0 1.0 4.0
       vertex 9.0 1.0 0.0
       vertex 9.0 1.0 4.0
     endloop
   endfacet
   facet normal 1.0 0.0 0.0
     outer loop
       vertex 9.0 3.0 1.0
       vertex 9.0 3.0 3.0
       vertex 9.0 1.0 4.0
     endloop
   endfacet
   facet normal 1.0 0.0 0.0
     outer loop
       vertex 9.0 3.0 1.0
       vertex 9.0 1.0 4.0
       vertex 9.0 1.0 0.0
     endloop
   endfacet
   facet normal 1.0 0.0 -0.0
     outer loop
       vertex 9.0 1.0 0.0
       vertex 9.0 9.0 0.0
       vertex 9.0 8.0 1.0
     endloop
   endfacet
   facet normal 1.0 0.0 -0.0
     outer loop
       vertex 9.0 1.0 0.0
       vertex 9.0 8.0 1.0
       vertex 9.0 3.0 1.0
     endloop
   endfacet
   facet normal 1.0 0.0 0.0
     outer loop
       vertex 9.0 9.0 4.0
       vertex 9.0 1.0 4.0
       vertex 9.0 3.0 3.0
     endloop
   endfacet
   facet normal 1.0 -0.0 0.0
     outer loop
       vertex 9.0 9.0 4.0
       vertex 9.0 3.0 3.0
       vertex 9.0 8.0 3.0
     endloop
   endfacet
   facet normal 1.0 0.0 0.0
     outer loop
       vertex 9.0 9.0 0.0
       vertex 9.0 9.0 4.0
       vertex 9.0 8.0 3.0
     endloop
   endfacet
   facet normal 1.0 0.0 0.0
     outer loop
       vertex 9.0 9.0 0.0
       vertex 9.0 8.0 3.0
       vertex 9.0 8.0 1.0
     endloop
   endfacet
   facet normal 0.0 1.0 0.0
     outer loop
       vertex 9.0 9.0 4.0
       vertex 9.0 9.0 0.0
       vertex 1.0 9.0 0.0
     endloop
   endfacet
   facet normal 0.0 1.0 -0.0
     outer loop
       vertex 9.0 9.0 4.0
       vertex 1.0 9.0 0.0
       vertex 1.0 9.0 4.0
     endloop
   endfacet
   facet normal -1.0 0.0 0.0
     outer loop
       vertex 1.0 8.0 1.0
       vertex 1.0 8.0 3.0
       vertex 1.0 9.0 4.0
     endloop
   endfacet
   facet normal -1.0 0.0 0.0
     outer loop
       vertex 1.0 8.0 1.0
       vertex 1.0 9.0 4.0
       vertex 1.0 9.0 0.0
     endloop
   endfacet
   facet normal -1.0 0.0 0.0
     outer loop
       vertex 1.0 3.0 1.0
       vertex 1.0 8.0 1.0
       vertex 1.0 9.0 0.0
     endloop
   endfacet
   facet normal -1.0 -0.0 0.0
     outer loop
       vertex 1.0 3.0 1.0
       vertex 1.0 9.0 0.0
       vertex 1.0 1.0 0.0
     endloop
   endfacet
   facet normal -1.0 0.0 0.0
     outer loop
       vertex 1.0 8.0 3.0
       vertex 1.0 3.0 3.0
       vertex 1.0 1.0 4.0
     endloop
   endfacet
   facet normal -1.0 0.0 0.0
     outer loop
       vertex 1.0 8.0 3.0
       vertex 1.0 1.0 4.0
       vertex 1.0 9.0 4.0
     endloop
   endfacet
   facet normal -1.0 0.0 0.0
     outer loop
       vertex 1.0 1.0 0.0
       vertex 1.0 1.0 4.0
       vertex 1.0 3.0 3.0
     endloop
   endfacet
   facet normal -1.0 0.0 0.0
     outer loop
       vertex 1.0 1.0 0.0
       vertex 1.0 3.0 3.0
       vertex 1.0 3.0 1.0
     endloop
   endfacet
   facet normal 0.0 0.0 -1.0
     outer loop
       vertex 1.0 9.0 0.0
       vertex 9.0 9.0 0.0
       vertex 9.0 1.0 0.0
     endloop
   endfacet
   facet normal -0.0 -0.0 -1.0
     outer loop
       vertex 1.0 9.0 0.0
       vertex 9.0 1.0 0.0
       vertex 1.0 1.0 0.0
     endloop
   endfacet
   facet normal -0.0 0.0 1.0
     outer loop
       vertex 1.0 9.0 4.0
       vertex 1.0 1.0 4.0
       vertex 9.0 1.0 4.0
     endloop
   endfacet
   facet normal 0.0 0.0 1.0
     outer loop
       vertex 1.0 9.0 4.0
       vertex 9.0 1.0 4.0
       vertex 9.0 9.0 4.0
     endloop
   endfacet
endsolid room