solid room
   facet normal 0.0 -1.0 0.0
     outer loop
       vertex 0.0 -21.0 8.0
       vertex 0.0 -21.0 0.0
       vertex 13.0 -21.0 0.0
     endloop
   endfacet
   facet normal 0.0 -1.0 0.0
     outer loop
       vertex 0.0 -21.0 8.0
       vertex 13.0 -21.0 0.0
       vertex 13.0 -21.0 8.0
     endloop
   endfacet
   facet normal 1.0 0.0 0.0
     outer loop
       vertex 13.0 -18.0 2.0
       vertex 13.0 -18.0 6.0
       vertex 13.0 -21.0 8.0
     endloop
   endfacet
   facet normal 1.0 0.0 0.0
     outer loop
       vertex 13.0 -18.0 2.0
       vertex 13.0 -21.0 8.0
       vertex 13.0 -21.0 0.0
     endloop
   endfacet
   facet normal 1.0 0.0 -0.0
     outer loop
       vertex 13.0 -21.0 0.0
       vertex 13.0 -9.0 0.0
       vertex 13.0 -12.0 2.0
     endloop
   endfacet
   facet normal 1.0 0.0 -0.0
     outer loop
       vertex 13.0 -21.0 0.0
       vertex 13.0 -12.0 2.0
       vertex 13.0 -18.0 2.0
     endloop
   endfacet
   facet normal 1.0 0.0 0.0
     outer loop
       vertex 13.0 -18.0 6.0
       vertex 13.0 -12.0 6.0
       vertex 13.0 -9.0 8.0
     endloop
   endfacet
   facet normal 1.0 0.0 0.0
     outer loop
       vertex 13.0 -18.0 6.0
       vertex 13.0 -9.0 8.0
       vertex 13.0 -21.0 8.0
     endloop
   endfacet
   facet normal 1.0 0.0 0.0
     outer loop
       vertex 13.0 -9.0 0.0
       vertex 13.0 -9.0 8.0
       vertex 13.0 -12.0 6.0
     endloop
   endfacet
   facet normal 1.0 0.0 0.0
     outer loop
       vertex 13.0 -9.0 0.0
       vertex 13.0 -12.0 6.0
       vertex 13.0 -12.0 2.0
     endloop
   endfacet
   facet normal 0.0 1.0 0.0
     outer loop
       vertex 13.0 -9.0 8.0
       vertex 13.0 -9.0 0.0
       vertex 0.0 -9.0 0.0
     endloop
   endfacet
   facet normal 0.0 1.0 -0.0
     outer loop
       vertex 13.0 -9.0 8.0
       vertex 0.0 -9.0 0.0
       vertex 0.0 -9.0 8.0
     endloop
   endfacet
   facet normal -1.0 0.0 0.0
     outer loop
       vertex 0.0 -12.0 2.0
       vertex 0.0 -12.0 6.0
       vertex 0.0 -9.0 8.0
     endloop
   endfacet
   facet normal -1.0 0.0 0.0
     outer loop
       vertex 0.0 -12.0 2.0
       vertex 0.0 -9.0 8.0
       vertex 0.0 -9.0 0.0
     endloop
   endfacet
   facet normal -1.0 0.0 0.0
     outer loop
       vertex 0.0 -9.0 0.0
       vertex 0.0 -21.0 0.0
       vertex 0.0 -18.0 2.0
     endloop
   endfacet
   facet normal -1.0 0.0 0.0
     outer loop
       vertex 0.0 -9.0 0.0
       vertex 0.0 -18.0 2.0
       vertex 0.0 -12.0 2.0
     endloop
   endfacet
   facet normal -1.0 0.0 0.0
     outer loop
       vertex 0.0 -12.0 6.0
       vertex 0.0 -18.0 6.0
       vertex 0.0 -21.0 8.0
     endloop
   endfacet
   facet normal -1.0 0.0 0.0
     outer loop
       vertex 0.0 -12.0 6.0
       vertex 0.0 -21.0 8.0
       vertex 0.0 -9.0 8.0
     endloop
   endfacet
   facet normal -1.0 0.0 0.0
     outer loop
       vertex 0.0 -21.0 0.0
       vertex 0.0 -21.0 8.0
       vertex 0.0 -18.0 6.0
     endloop
   endfacet
   facet normal -1.0 0.0 0.0
     outer loop
       vertex 0.0 -21.0 0.0
       vertex 0.0 -18.0 6.0
       vertex 0.0 -18.0 2.0
     endloop
   endfacet
   facet normal 0.0 0.0 -1.0
     outer loop
       vertex 0.0 -9.0 0.0
       vertex 13.0 -9.0 0.0
       vertex 13.0 -21.0 0.0
     endloop
   endfacet
   facet normal -0.0 -0.0 -1.0
     outer loop
       vertex 0.0 -9.0 0.0
       vertex 13.0 -21.0 0.0
       vertex 0.0 -21.0 0.0
     endloop
   endfacet
   facet normal -0.0 0.0 1.0
     outer loop
       vertex 0.0 -9.0 8.0
       vertex 0.0 -21.0 8.0
       vertex 13.0 -21.0 8.0
     endloop
   endfacet
   facet normal 0.0 0.0 1.0
     outer loop
       vertex 0.0 -9.0 8.0
       vertex 13.0 -21.0 8.0
       vertex 13.0 -9.0 8.0
     endloop
   endfacet
endsolid room