solid model
facet normal -1.0 0.0 0.0
outer loop
vertex 0.0 0.0 9.999999999999996
vertex 0.0 3.1865315455014325 7.138439281489398
vertex 0.0 0.0 0.0
endloop
endfacet
facet normal -1.0 0.0 0.0
outer loop
vertex 0.0 3.1865315455014325 7.138439281489398
vertex 0.0 0.0 9.999999999999996
vertex 0.0 9.999999999999996 9.999999999999996
endloop
endfacet
facet normal -1.0 0.0 0.0
outer loop
vertex 0.0 3.1865315455014325 7.138439281489398
vertex 0.0 9.999999999999996 9.999999999999996
vertex 0.0 6.811531545501431 7.138439281489398
endloop
endfacet
facet normal -1.0 0.0 0.0
outer loop
vertex 0.0 6.811531545501431 7.138439281489398
vertex 0.0 9.999999999999996 9.999999999999996
vertex 0.0 6.811531545501431 3.5134392814893993
endloop
endfacet
facet normal -1.0 0.0 0.0
outer loop
vertex 0.0 0.0 0.0
vertex 0.0 3.1865315455014325 3.5134392814893993
vertex 0.0 9.999999999999996 0.0
endloop
endfacet
facet normal -1.0 0.0 0.0
outer loop
vertex 0.0 3.1865315455014325 3.5134392814893993
vertex 0.0 0.0 0.0
vertex 0.0 3.1865315455014325 7.138439281489398
endloop
endfacet
facet normal -1.0 0.0 0.0
outer loop
vertex 0.0 9.999999999999996 0.0
vertex 0.0 3.1865315455014325 3.5134392814893993
vertex 0.0 6.811531545501431 3.5134392814893993
endloop
endfacet
facet normal -1.0 0.0 0.0
outer loop
vertex 0.0 9.999999999999996 0.0
vertex 0.0 6.811531545501431 3.5134392814893993
vertex 0.0 9.999999999999996 9.999999999999996
endloop
endfacet
facet normal -0.0 -0.0 1.0
outer loop
vertex 9.999999999999996 0.0 9.999999999999996
vertex 0.0 9.999999999999996 9.999999999999996
vertex 0.0 0.0 9.999999999999996
endloop
endfacet
facet normal -0.0 -0.0 1.0
outer loop
vertex 0.0 9.999999999999996 9.999999999999996
vertex 9.999999999999996 0.0 9.999999999999996
vertex 9.999999999999996 9.999999999999996 9.999999999999996
endloop
endfacet
facet normal -0.0 -1.0 -0.0
outer loop
vertex 9.999999999999996 0.0 9.999999999999996
vertex 0.0 0.0 0.0
vertex 9.999999999999996 0.0 0.0
endloop
endfacet
facet normal -0.0 -1.0 -0.0
outer loop
vertex 0.0 0.0 0.0
vertex 9.999999999999996 0.0 9.999999999999996
vertex 0.0 0.0 9.999999999999996
endloop
endfacet
facet normal -0.0 1.0 0.0
outer loop
vertex 0.0 9.999999999999996 9.999999999999996
vertex 9.999999999999996 9.999999999999996 0.0
vertex 0.0 9.999999999999996 0.0
endloop
endfacet
facet normal -0.0 1.0 0.0
outer loop
vertex 9.999999999999996 9.999999999999996 0.0
vertex 0.0 9.999999999999996 9.999999999999996
vertex 9.999999999999996 9.999999999999996 9.999999999999996
endloop
endfacet
facet normal 1.0 0.0 0.0
outer loop
vertex 9.999999999999996 0.0 0.0
vertex 9.999999999999996 2.5781912928705353 3.4866339884924984
vertex 9.999999999999996 0.0 9.999999999999996
endloop
endfacet
facet normal 1.0 0.0 0.0
outer loop
vertex 9.999999999999996 2.5781912928705353 3.4866339884924984
vertex 9.999999999999996 0.0 0.0
vertex 9.999999999999996 9.999999999999996 0.0
endloop
endfacet
facet normal 1.0 0.0 0.0
outer loop
vertex 9.999999999999996 2.5781912928705353 3.4866339884924984
vertex 9.999999999999996 9.999999999999996 0.0
vertex 9.999999999999996 7.2136079595372005 3.4866339884924984
endloop
endfacet
facet normal 1.0 0.0 0.0
outer loop
vertex 9.999999999999996 7.2136079595372005 3.4866339884924984
vertex 9.999999999999996 9.999999999999996 0.0
vertex 9.999999999999996 7.2136079595372005 7.215800655159164
endloop
endfacet
facet normal 1.0 0.0 0.0
outer loop
vertex 9.999999999999996 0.0 9.999999999999996
vertex 9.999999999999996 2.5781912928705353 7.215800655159164
vertex 9.999999999999996 9.999999999999996 9.999999999999996
endloop
endfacet
facet normal 1.0 0.0 0.0
outer loop
vertex 9.999999999999996 2.5781912928705353 7.215800655159164
vertex 9.999999999999996 0.0 9.999999999999996
vertex 9.999999999999996 2.5781912928705353 3.4866339884924984
endloop
endfacet
facet normal 1.0 0.0 0.0
outer loop
vertex 9.999999999999996 9.999999999999996 9.999999999999996
vertex 9.999999999999996 2.5781912928705353 7.215800655159164
vertex 9.999999999999996 7.2136079595372005 7.215800655159164
endloop
endfacet
facet normal 1.0 0.0 0.0
outer loop
vertex 9.999999999999996 9.999999999999996 9.999999999999996
vertex 9.999999999999996 7.2136079595372005 7.215800655159164
vertex 9.999999999999996 9.999999999999996 0.0
endloop
endfacet
facet normal 0.0 0.0 -1.0
outer loop
vertex 9.999999999999996 9.999999999999996 0.0
vertex 0.0 0.0 0.0
vertex 0.0 9.999999999999996 0.0
endloop
endfacet
facet normal 0.0 0.0 -1.0
outer loop
vertex 0.0 0.0 0.0
vertex 9.999999999999996 9.999999999999996 0.0
vertex 9.999999999999996 0.0 0.0
endloop
endfacet
endsolid model

solid West_window

facet normal 1.0 -0.0 -0.0
outer loop
vertex 9.999999999999996 7.2136079595372005 3.4866339884924984
vertex 9.999999999999996 2.5781912928705353 7.215800655159164
vertex 9.999999999999996 2.5781912928705353 3.4866339884924984
endloop
endfacet
facet normal 1.0 -0.0 -0.0
outer loop
vertex 9.999999999999996 2.5781912928705353 7.215800655159164
vertex 9.999999999999996 7.2136079595372005 3.4866339884924984
vertex 9.999999999999996 7.2136079595372005 7.215800655159164
endloop
endfacet
endsolid West_window