solid room
   facet normal 0.0 -1.0 -0.0
     outer loop
       vertex 9.0 1.0 9.0
       vertex 1.0 1.0 9.0
       vertex 1.0 1.0 0.0
     endloop
   endfacet
   facet normal 0.0 -1.0 0.0
     outer loop
       vertex 9.0 1.0 9.0
       vertex 1.0 1.0 0.0
       vertex 9.0 1.0 0.0
     endloop
   endfacet
   facet normal 1.0 0.0 0.0
     outer loop
       vertex 9.0 9.0 9.0
       vertex 9.0 1.0 9.0
       vertex 9.0 1.0 0.0
     endloop
   endfacet
   facet normal 1.0 -0.0 0.0
     outer loop
       vertex 9.0 9.0 9.0
       vertex 9.0 1.0 0.0
       vertex 9.0 9.0 0.0
     endloop
   endfacet
   facet normal 0.0 1.0 0.0
     outer loop
       vertex 1.0 9.0 9.0
       vertex 9.0 9.0 9.0
       vertex 9.0 9.0 0.0
     endloop
   endfacet
   facet normal 0.0 1.0 0.0
     outer loop
       vertex 1.0 9.0 9.0
       vertex 9.0 9.0 0.0
       vertex 1.0 9.0 0.0
     endloop
   endfacet
   facet normal -1.0 0.0 0.0
     outer loop
       vertex 1.0 1.0 9.0
       vertex 1.0 9.0 9.0
       vertex 1.0 9.0 0.0
     endloop
   endfacet
   facet normal -1.0 -0.0 -0.0
     outer loop
       vertex 1.0 1.0 9.0
       vertex 1.0 9.0 0.0
       vertex 1.0 1.0 0.0
     endloop
   endfacet
endsolid room
solid roof
   facet normal 0.0 0.0 1.0
     outer loop
       vertex 9.0 9.0 9.0
       vertex 1.0 9.0 9.0
       vertex 1.0 1.0 9.0
     endloop
   endfacet
   facet normal -0.0 0.0 1.0
     outer loop
       vertex 9.0 9.0 9.0
       vertex 1.0 1.0 9.0
       vertex 9.0 1.0 9.0
     endloop
   endfacet
endsolid roof
solid floor
   facet normal -0.0 0.0 -1.0
     outer loop
       vertex 9.0 9.0 0.0
       vertex 9.0 1.0 0.0
       vertex 1.0 1.0 0.0
     endloop
   endfacet
   facet normal 0.0 0.0 -1.0
     outer loop
       vertex 9.0 9.0 0.0
       vertex 1.0 1.0 0.0
       vertex 1.0 9.0 0.0
     endloop
   endfacet
endsolid floor
