solid Building
  facet normal 1 -0 0
    outer loop
      vertex 5 5 0
      vertex 5 10 0
      vertex 5 10 2.5
    endloop
  endfacet
  facet normal 1 -0 0
    outer loop
      vertex 5 5 0
      vertex 5 10 2.5
      vertex 5 5 2.5
    endloop
  endfacet
  facet normal 1 0 -0
    outer loop
      vertex 5 10 5
      vertex 5 5 5
      vertex 5 5 2.5
    endloop
  endfacet
  facet normal 1 0 -0
    outer loop
      vertex 5 10 5
      vertex 5 5 2.5
      vertex 5 10 2.5
    endloop
  endfacet
  facet normal 0 1 0
    outer loop
      vertex 11 5 0
      vertex 5 5 0
      vertex 5 5 2.5
    endloop
  endfacet
  facet normal 0 1 0
    outer loop
      vertex 11 5 0
      vertex 5 5 2.5
      vertex 11 5 2.5
    endloop
  endfacet
  facet normal -0 1 -0
    outer loop
      vertex 5 5 5
      vertex 11 5 5
      vertex 11 5 2.5
    endloop
  endfacet
  facet normal -0 1 -0
    outer loop
      vertex 5 5 5
      vertex 11 5 2.5
      vertex 5 5 2.5
    endloop
  endfacet
  facet normal -1 -0 -0
    outer loop
      vertex 11 10 0
      vertex 11 5 0
      vertex 11 5 2.5
    endloop
  endfacet
  facet normal -1 -0 -0
    outer loop
      vertex 11 10 0
      vertex 11 5 2.5
      vertex 11 10 2.5
    endloop
  endfacet
  facet normal -1 0 0
    outer loop
      vertex 11 5 5
      vertex 11 10 5
      vertex 11 10 2.5
    endloop
  endfacet
  facet normal -1 0 0
    outer loop
      vertex 11 5 5
      vertex 11 10 2.5
      vertex 11 5 2.5
    endloop
  endfacet
  facet normal 0 -1 -0
    outer loop
      vertex 5 10 0
      vertex 11 10 0
      vertex 11 10 2.5
    endloop
  endfacet
  facet normal 0 -1 -0
    outer loop
      vertex 5 10 0
      vertex 11 10 2.5
      vertex 5 10 2.5
    endloop
  endfacet
  facet normal -0 -1 0
    outer loop
      vertex 11 10 5
      vertex 5 10 5
      vertex 5 10 2.5
    endloop
  endfacet
  facet normal -0 -1 0
    outer loop
      vertex 11 10 5
      vertex 5 10 2.5
      vertex 11 10 2.5
    endloop
  endfacet
endsolid Building
